<svg id="Capa_1" data-name="Capa 1" xmlns="http://www.w3.org/2000/svg" viewBox="0 0 100 100"><defs><style>.cls-1{fill:#fff;}</style></defs><title>graderia</title><path class="cls-1" d="M95.3,11.31H60.37a3.18,3.18,0,0,0,0,6.35h3.18v12.7H31.8a3.18,3.18,0,1,0,0,6.35H35v12.7H4.28a3.18,3.18,0,0,0,0,6.35H6.4V84.34a3.18,3.18,0,0,0,6.35,0V68.46H35V84.34a3.18,3.18,0,0,0,6.35,0V49.41H63.55V84.34a3.18,3.18,0,0,0,6.35,0v-54H92.13v54a3.18,3.18,0,0,0,6.35,0V14.49A3.18,3.18,0,0,0,95.3,11.31ZM12.75,62.11V55.76H35v6.35Zm28.57-19V36.71H63.55v6.35ZM69.9,24V17.66H92.13V24Z"/></svg>