<svg id="Capa_1" data-name="Capa 1" xmlns="http://www.w3.org/2000/svg" viewBox="0 0 100 100"><defs><style>.cls-1{fill:#fff;}</style></defs><title>mex</title><path class="cls-1" d="M52.84,42.05A15.42,15.42,0,1,0,37.42,26.63,15.44,15.44,0,0,0,52.84,42.05Zm0-27.75A12.33,12.33,0,1,1,40.51,26.63,12.35,12.35,0,0,1,52.84,14.3Z"/><path class="cls-1" d="M52.84,20.46V17.38a9.27,9.27,0,0,0-9.06,7.4l3,.62A6.19,6.19,0,0,1,52.84,20.46Z"/><path class="cls-1" d="M47.91,30.33a6,6,0,0,1-1.11-2.46l-3,.61a9.25,9.25,0,0,0,1.66,3.7Z"/><path class="cls-1" d="M92.29,65.18l-7.71,7.7H71.34V69.8h3.91l6.89-10.32V52.84H73.68l-4.14-5.79,4-6.12a24.6,24.6,0,0,0,4-13.45v-.85a24.67,24.67,0,0,0-49.34,0v.85A24.58,24.58,0,0,0,31,39H25.49l-13.88-7.7H2V42.41l3.09,6.17v9.35l3.08,4.63v4.62l3.67,5.51,5.58,1.4v2.24l3.67,7.35h7.12V72.42L15.84,53.92V50.4l1.46-1.47,20.12,23v9.67l29.22,13,4.52-1.51,7.46,4.48h8.14v-5l-1.54-3.08V86.76h9.25V82.5l3.08-6.17V65.18Zm-61-38.55a21.59,21.59,0,0,1,43.17,0v.85a21.56,21.56,0,0,1-3.49,11.77L56.31,61.75a4.14,4.14,0,0,1-6.94,0L34.75,39.25a21.48,21.48,0,0,1-3.49-11.77Zm63.21,49-3.08,6.17v1.91H82.14v6.53l1.54,3.08v1.18h-4.2l-8-4.77L66.8,91.28,40.51,79.59V70.76l-23-26.34-4.71,4.7v5.73l12.34,18.5v7.24H23l-2.5-5V71.68L13.71,70l-2.5-3.74V61.62L8.13,57V47.85L5.05,41.68V34.34h5.76l13.88,7.71h8.2L46.78,63.43a7.23,7.23,0,0,0,12.12,0l8.84-13.6,4.35,6.09h7v2.62L73.6,66.72H68.26V76h17.6l7.71-7.71h.9Z"/></svg>