<svg id="Capa_1" data-name="Capa 1" xmlns="http://www.w3.org/2000/svg" viewBox="0 0 100 100"><defs><style>.cls-1{fill:#fff;}</style></defs><title>people</title><path class="cls-1" d="M25.06,25.19a1.81,1.81,0,0,0,.87.22,1.88,1.88,0,0,0,1.67-1l0-.06a1.88,1.88,0,1,0-3.32-1.77l0,.1A1.87,1.87,0,0,0,25.06,25.19Z"/><path class="cls-1" d="M88.85,39.44V34.52a5.75,5.75,0,0,0-5.43-5.73,30.77,30.77,0,0,0-8.25-16.7A26.83,26.83,0,0,0,58.52,3.55v-1A1.88,1.88,0,0,0,56.64.71H41.25a1.88,1.88,0,0,0-1.88,1.88v1a26.86,26.86,0,0,0-16.66,8.54,30.82,30.82,0,0,0-8.24,16.7A5.76,5.76,0,0,0,9,34.52v5.13a6.1,6.1,0,0,0-2.28,4.56c0,3.32,3.31,6.09,7.67,6.68.28,3.16.78,6.35,1.29,9.22a1.88,1.88,0,0,0,.67,3.62l.12.6c.25,1.34.48,2.51.63,3.42,1.33,8.08,2.55,12.4,4.35,15.42,1.91,3.18,4.39,4.76,7.82,6.94,1,.66,2.21,1.41,3.5,2.28l.12.08a32.06,32.06,0,0,0,16,4.58h0a31.91,31.91,0,0,0,16-4.59l.12-.07c1.29-.87,2.46-1.62,3.5-2.28,3.43-2.18,5.91-3.76,7.82-6.94,1.8-3,3-7.34,4.35-15.42.15-.91.37-2.07.63-3.41l.12-.61a1.88,1.88,0,0,0,.67-3.62c.51-2.87,1-6.08,1.29-9.23a11.62,11.62,0,0,0,4.6-1.65,6.22,6.22,0,0,0,3.21-5.11A6.12,6.12,0,0,0,88.85,39.44Zm-9-8.64a1.89,1.89,0,0,0,1.88,1.75h1.4a2,2,0,0,1,2,2v2.59a31.88,31.88,0,0,0-3.57-1.35C76,34,68.26,33,58.52,32.55V7.34C70.33,8.74,79.13,20.41,79.84,30.8ZM54.76,4.47v28q-2.71-.06-5.61-.06c-2.08,0-4.09,0-6,.07v-28Zm-42,30.05a2,2,0,0,1,2-2h1.4A1.87,1.87,0,0,0,18,30.8c.72-10.39,9.52-22.06,21.33-23.46v3.77a19.51,19.51,0,0,0-11.75,6.67,1.88,1.88,0,1,0,2.81,2.51,15.94,15.94,0,0,1,8.94-5.36V32.56c-9.64.43-17.29,1.51-22.81,3.25a29.51,29.51,0,0,0-3.76,1.44V34.52ZM78.38,60h-4a12.08,12.08,0,0,0-23.86,0H47.4a12.08,12.08,0,0,0-23.86,0h-4c-.54-3-1.07-6.31-1.35-9.56a90.61,90.61,0,0,1,61.57,0C79.45,53.66,78.92,57,78.38,60Zm-7.64,1.89a8.32,8.32,0,1,1-8.32-8.32,8.34,8.34,0,0,1,8.32,8.32h0Zm-26.95,0a8.32,8.32,0,1,1-8.32-8.32,8.33,8.33,0,0,1,8.32,8.32h0ZM66.57,86.94c-1,.66-2.23,1.41-3.54,2.3-9.35,5.37-18.83,5.37-28.17,0-1.32-.89-2.5-1.64-3.54-2.3-6.36-4-8.06-5.13-10.48-19.81-.15-.92-.37-2.07-.63-3.39h3.33a12.08,12.08,0,0,0,23.86,0h3.09a12.08,12.08,0,0,0,23.86,0h3.32c-.25,1.32-.47,2.47-.62,3.39C74.63,81.81,72.92,82.89,66.57,86.94ZM82,47.23a94.5,94.5,0,0,0-66.14,0c-3-.11-5.34-1.7-5.34-3s1.88-3.15,7.18-4.81c6.81-2.14,17.69-3.28,31.46-3.28,23.09,0,32.95,3.11,36.56,5.64A2.26,2.26,0,0,0,86,42c1.08.83,1.5,1.58,1.5,2.13C87.52,45.49,85.08,47.13,82,47.23Z"/></svg>