<svg id="Capa_1" data-name="Capa 1" xmlns="http://www.w3.org/2000/svg" viewBox="0 0 100 100"><defs><style>.cls-1{fill:#fff;}</style></defs><title>project</title><path class="cls-1" d="M82,13.72a1.78,1.78,0,0,0-2.29-.32,1.34,1.34,0,0,0-.37,2,27.11,27.11,0,0,1,6.35,17.32,28.68,28.68,0,0,1-5.83,17.08c-5.63,7.63-9.39,13.24-10.26,21.38a2.37,2.37,0,0,1-1.86,2l-.19,0a2.74,2.74,0,0,1-.5,0H37.5a2.74,2.74,0,0,1-.5,0l-.2,0a2.38,2.38,0,0,1-1.86-2c-.87-8.14-4.62-13.75-10.26-21.38a28.67,28.67,0,0,1-5.82-17.08c0-16.28,15-29.53,33.41-29.53a35.75,35.75,0,0,1,22.81,8,1.8,1.8,0,0,0,2.33-.07,1.33,1.33,0,0,0-.08-2A39.29,39.29,0,0,0,52.27.31C32,.31,15.57,14.86,15.57,32.75a31.33,31.33,0,0,0,6.35,18.67c5.37,7.27,8.94,12.59,9.74,20.06a5.24,5.24,0,0,0,3.21,4.17V89.31a4.3,4.3,0,0,0,3.1,4c.16,3.55,3.48,6.4,7.54,6.4H59c4.05,0,7.38-2.85,7.54-6.4a4.3,4.3,0,0,0,3.1-4V75.65a5.25,5.25,0,0,0,3.2-4.17c.8-7.47,4.38-12.79,9.74-20.05A31.39,31.39,0,0,0,89,32.75a29.73,29.73,0,0,0-7-19ZM48.48,81.85h17.9V84.5H38.16V81.85h3.73a1.47,1.47,0,1,0,0-2.91H38.16V76.19H66.38v2.75H48.48a1.47,1.47,0,1,0,0,2.91ZM65,90.63H39.58a1.42,1.42,0,0,1-1.42-1.32V87.42H66.38v1.89A1.41,1.41,0,0,1,65,90.63ZM59,96.76H45.51a4.13,4.13,0,0,1-4.21-3.22h22A4.13,4.13,0,0,1,59,96.76Zm0,0"/><path class="cls-1" d="M70.35,41.12a.48.48,0,0,1,.47-.3h1.34A3.59,3.59,0,0,0,76,37.47V35.31A3.6,3.6,0,0,0,72.16,32H70.73a.5.5,0,0,1-.47-.29,15.43,15.43,0,0,0-1.49-3.16.39.39,0,0,1,.08-.51l1-.9A3.19,3.19,0,0,0,71,24.73a3.16,3.16,0,0,0-1.11-2.37l-1.73-1.53a4.15,4.15,0,0,0-5.36,0l-1,.91a.55.55,0,0,1-.58.08,20.41,20.41,0,0,0-3.57-1.33.43.43,0,0,1-.34-.41V18.82a3.59,3.59,0,0,0-3.79-3.35H51.05a3.59,3.59,0,0,0-3.79,3.35V20a.43.43,0,0,1-.34.41,20.75,20.75,0,0,0-3.69,1.31.52.52,0,0,1-.56-.08l-.92-.81a4.14,4.14,0,0,0-5.35,0l-1.73,1.53a3.09,3.09,0,0,0,0,4.74l.82.72a.4.4,0,0,1,.09.51A15.1,15.1,0,0,0,34,31.67a.51.51,0,0,1-.49.29H32.39a3.6,3.6,0,0,0-3.79,3.35v2.16a3.59,3.59,0,0,0,3.79,3.35h1a.47.47,0,0,1,.47.3,15.78,15.78,0,0,0,1.6,3.44.4.4,0,0,1-.1.51l-.7.62a3.07,3.07,0,0,0,0,4.73L36.39,52a4.15,4.15,0,0,0,5.36,0l.71-.62a.54.54,0,0,1,.57-.09,20.05,20.05,0,0,0,3.89,1.41.44.44,0,0,1,.34.42V54a3.59,3.59,0,0,0,3.79,3.34h2.44A3.59,3.59,0,0,0,57.28,54V53a.45.45,0,0,1,.34-.43,20.32,20.32,0,0,0,3.77-1.42.53.53,0,0,1,.58.08l.82.72a4.15,4.15,0,0,0,5.36,0l1.73-1.53a3.07,3.07,0,0,0,0-4.73L69,44.88a.39.39,0,0,1-.09-.5,15.65,15.65,0,0,0,1.48-3.26Zm-3.17-.79A12.43,12.43,0,0,1,66,43a3.05,3.05,0,0,0,.67,3.93l.92.81a.41.41,0,0,1,0,.62l-1.73,1.52a.54.54,0,0,1-.7,0l-.82-.72a4.16,4.16,0,0,0-4.52-.56,16.26,16.26,0,0,1-3.12,1.17A3.46,3.46,0,0,0,54,53v1a.46.46,0,0,1-.5.43H51.05a.46.46,0,0,1-.49-.43v-.9a3.45,3.45,0,0,0-2.74-3.22,17.07,17.07,0,0,1-3.21-1.16,4.14,4.14,0,0,0-1.79-.4,4.05,4.05,0,0,0-2.69,1l-.71.62a.5.5,0,0,1-.35.13.51.51,0,0,1-.35-.13L37,48.36a.39.39,0,0,1,0-.61l.7-.63a3.08,3.08,0,0,0,.66-4A12.84,12.84,0,0,1,37,40.32a3.75,3.75,0,0,0-3.64-2.41h-1a.47.47,0,0,1-.5-.44V35.31a.47.47,0,0,1,.5-.44h1.09a3.79,3.79,0,0,0,3.64-2.36,12.44,12.44,0,0,1,1.33-2.75,3.08,3.08,0,0,0-.63-4L37,25a.4.4,0,0,1,0-.62l1.72-1.53a.54.54,0,0,1,.7,0l.92.81a4.12,4.12,0,0,0,4.44.59,17.7,17.7,0,0,1,3-1.08A3.44,3.44,0,0,0,50.56,20V18.82a.47.47,0,0,1,.49-.44h2.44a.47.47,0,0,1,.5.44v1.26a3.4,3.4,0,0,0,2.67,3.2,16.81,16.81,0,0,1,3,1.09,4.19,4.19,0,0,0,4.49-.57l1-.91a.54.54,0,0,1,.7,0l1.73,1.53a.41.41,0,0,1,0,.62l-1,.9a3.09,3.09,0,0,0-.65,4,12.39,12.39,0,0,1,1.24,2.6,3.72,3.72,0,0,0,3.62,2.36h1.43a.47.47,0,0,1,.49.44v2.16a.47.47,0,0,1-.49.44H70.82a3.76,3.76,0,0,0-3.64,2.42Zm0,0"/><path class="cls-1" d="M52.27,25.78c-6.62,0-12,4.76-12,10.61S45.65,47,52.27,47s12-4.76,12-10.62-5.38-10.61-12-10.61Zm0,18.32c-4.81,0-8.72-3.46-8.72-7.71s3.92-7.7,8.72-7.7S61,32.14,61,36.39s-3.91,7.71-8.72,7.71Zm0,0"/></svg>