<svg id="Capa_1" data-name="Capa 1" xmlns="http://www.w3.org/2000/svg" viewBox="0 0 100 100"><defs><style>.cls-1{fill:#fff;}</style></defs><title>puntal</title><path class="cls-1" d="M59.2,99.07h0L42.05,99a.47.47,0,0,1-.48-.45l-.43-18.35L39.69,80a.47.47,0,0,1-.42-.44l0-1.36a3.36,3.36,0,0,1-1-.81l-7.14-.18h-.09a6.46,6.46,0,0,1-4.65-3.89,10.06,10.06,0,0,1-.81-3v0l-.25-20.85a.06.06,0,0,1,0,0c.38-5,5.19-5,5.64-5L36.37,44a3.92,3.92,0,0,1,2.07-3.28,7,7,0,0,1,2.79-.82,4.63,4.63,0,0,1-3-2.41,1.69,1.69,0,0,1,.48-1.88,3.35,3.35,0,0,1,3.06-.75l-.1-23.57-8.23-.34a1.77,1.77,0,0,1-1.3-.57,2.9,2.9,0,0,1-.56-2.08l.16-6.85,1,0L32.6,8.3v0a2.11,2.11,0,0,0,.32,1.42.86.86,0,0,0,.61.25l8.69.35a.47.47,0,0,1,.47.46l.1,24.64a.47.47,0,0,1-.23.39.51.51,0,0,1-.48,0,2.51,2.51,0,0,0-2.64.35.84.84,0,0,0-.24,1,4.14,4.14,0,0,0,3.19,2,.46.46,0,0,1,.41.45,1.12,1.12,0,0,1-1.1,1.09c-3.85.22-4.39,2.38-4.36,3.65a.48.48,0,0,1-.46.47L31,45.2H31a4.39,4.39,0,0,0-4.65,4.17l.25,20.81a8.93,8.93,0,0,0,.74,2.76,5.46,5.46,0,0,0,3.91,3.32l7.33.19a.47.47,0,0,1,.38.19,2.77,2.77,0,0,0,.81.74.47.47,0,0,1,.47.45l0,1.29,1.45.2a.46.46,0,0,1,.41.44l.43,18.29,16.18.11-.12-18.7A.47.47,0,0,1,59,79l1.34-.31V77.8a.39.39,0,0,1,.07-.23c.1-.17,1.06-1.64,2.24-1.39l6.5-.33a5,5,0,0,0,4.37-4.13L71.57,48.63v0a2.8,2.8,0,0,0-.32-1.43l0,0,.08-.91c1,.08,1.15,1.62,1.17,2.29L74.46,71.7v.09c-.65,4.47-5.2,5-5.25,5h0l-6.59.33a.37.37,0,0,1-.18,0c-.3-.08-.83.43-1.14.86v1.14a.46.46,0,0,1-.37.44l-1.34.31.12,18.8a.46.46,0,0,1-.15.32A.47.47,0,0,1,59.2,99.07Z"/><path class="cls-1" d="M62.29,74a.5.5,0,0,1-.33-.12l-1.55-1.32a.44.44,0,0,1-.16-.33l-.64-23a.47.47,0,0,1,.44-.46c.06,0,.68-.13.76-1.15a.47.47,0,0,1,.48-.42H68a2,2,0,0,1,1.57.4A1.79,1.79,0,0,1,70,49.27L71.14,70.6c.11.42.47,2-.33,2.7a1.52,1.52,0,0,1-1.49.2l-7,.48Zm-1.07-2,1.24,1,6.88-.47a.64.64,0,0,1,.2,0c.17,0,.47.13.61,0s.2-1.23,0-1.85a.28.28,0,0,1,0-.09L69,49.28V49.2a1.1,1.1,0,0,0-.17-.93,1.16,1.16,0,0,0-.78-.16H61.72a2,2,0,0,1-1.12,1.44Z"/><path class="cls-1" d="M30.33,74a1.15,1.15,0,0,1-.71-.24,1.79,1.79,0,0,1-.5-1.6l-.53-20.68a8.32,8.32,0,0,1-.15-1.3,3.26,3.26,0,0,1,.64-2.31,1.92,1.92,0,0,1,1.57-.61c2.21.07,5,0,5.38,0a3,3,0,0,1,2.14.41A3,3,0,0,1,39.37,50c.24,2.87.4,20.26.41,21.66a2.07,2.07,0,0,1-.2,1.91,1.35,1.35,0,0,1-1.24.35l-7.86,0Zm.22-25.84a.9.9,0,0,0-.72.29c-.61.67-.4,2.31-.28,2.89a.22.22,0,0,1,0,.08l.53,20.74v0c-.05.66.12.83.16.86a.11.11,0,0,0,.07,0h.11l8,0h.09c.11,0,.31,0,.38,0s.11-.71,0-1.11a.51.51,0,0,1,0-.13c0-.19-.17-18.76-.41-21.66a2.17,2.17,0,0,0-.8-1.71,2.05,2.05,0,0,0-1.41-.26H36.1s-3.09.08-5.49,0Z"/><path class="cls-1" d="M32.74,1.53l-1-.21C32.07.22,33.52,0,34.33,0c0,0,2.29.05,4.55.12,4.8.15,4.81.16,5,.41l-.8.51a.45.45,0,0,0,.28.18C42.9,1.18,37.56,1,34.29.94,33.93.92,32.88,1,32.74,1.53Z"/><path class="cls-1" d="M56.4,40.87a.48.48,0,0,1-.49-.44l-.78-29.84a.43.43,0,0,1,.14-.32.48.48,0,0,1,.34-.14L62.2,10l.41-1.05a.48.48,0,0,1,.47-.3l1,0a6.86,6.86,0,0,0,.59-3.27.36.36,0,0,1,0-.25l1.46-3.26c0-.07,0-.22-.27-.36a1.1,1.1,0,0,0-.56-.13l-9.61.14a.46.46,0,0,1-.49-.44.47.47,0,0,1,.48-.47L65.29.47a2.16,2.16,0,0,1,1.08.27,1.24,1.24,0,0,1,.7,1.36.14.14,0,0,1,0,.06L65.62,5.37a8.15,8.15,0,0,1-.81,3.93.51.51,0,0,1-.45.27l-1,0-.41,1a.49.49,0,0,1-.45.29L56.12,11l.77,29.38a.47.47,0,0,1-.48.46Z"/><path class="cls-1" d="M49.68,3.7a8.09,8.09,0,0,1-3.14-.63,10.08,10.08,0,0,1-3.45-2l.76-.57-.38.29.38-.29a10.09,10.09,0,0,0,3.09,1.71,7.5,7.5,0,0,0,5.45,0A4.79,4.79,0,0,1,55.73.61l0,.91a3.88,3.88,0,0,0-2.6,1.41L53,3l-.1.05A8.18,8.18,0,0,1,49.68,3.7Z"/><path class="cls-1" d="M79.06,49.7H79l-7.08-1.44a.46.46,0,0,1-.38-.54.49.49,0,0,1,.37-.35L59.81,44.11a.45.45,0,0,1-.34-.54l.8-3.32A.44.44,0,0,1,60.5,40a.55.55,0,0,1,.38-.05l14.35,3.94a20.09,20.09,0,0,1,5.56,2A.52.52,0,0,1,81,46a2.57,2.57,0,0,1,.22,2.68,2.84,2.84,0,0,1-2.12,1Zm-1-1.12,1,.2a1.68,1.68,0,0,0,1.25-.56,1.84,1.84,0,0,0-.2-1.68A19.74,19.74,0,0,0,75,44.74h0L61.11,40.92l-.59,2.43L77.76,48a.45.45,0,0,1,.33.57Z"/><path class="cls-1" d="M48.07,40.41H48l-7.42-1.47a.45.45,0,0,1-.38-.44.38.38,0,0,1,0-.1.48.48,0,0,1,.57-.35l7.42,1.47a.46.46,0,0,1,.39.44s0,.07,0,.1A.49.49,0,0,1,48.07,40.41Z"/><path class="cls-1" d="M49.12,37.3H49L42.2,35.9a.45.45,0,0,1-.37-.54.5.5,0,0,1,.58-.35l6.81,1.39a.46.46,0,0,1,.38.54A.5.5,0,0,1,49.12,37.3Z"/><path class="cls-1" d="M48.51,40.47a2.1,2.1,0,1,1,2.16-2.1A2.13,2.13,0,0,1,48.51,40.47Zm0-3.28a1.19,1.19,0,1,0,1.18,1.18A1.18,1.18,0,0,0,48.51,37.19Z"/><path class="cls-1" d="M60.3,45.27a32.67,32.67,0,0,0-7.44-2.19,26.91,26.91,0,0,0-15.8,1.72L36.63,44a28,28,0,0,1,16.44-1.79,32.91,32.91,0,0,1,7.67,2.27Z"/><polygon class="cls-1" points="42.8 39.71 41.83 39.57 41.97 38.79 42.93 38.94 42.8 39.71"/><path class="cls-1" d="M60.52,45.32a.46.46,0,1,1,0-.91l3.21-.07a.46.46,0,1,1,0,.91l-3.21.07Z"/><path class="cls-1" d="M41.71,10.92a3,3,0,0,1,.95-2.24c1.13-1.11,3.07-1.63,5.79-1.54,7.16.23,7.64,3.26,7.65,3.39l-1,.11a2,2,0,0,0-.94-1.18c-.81-.59-2.47-1.31-5.77-1.41C46,8,44.3,8.4,43.39,9.29a2,2,0,0,0-.7,1.56Z"/><path class="cls-1" d="M49.48,4.94a7.43,7.43,0,0,1-4.39-1.09,5.68,5.68,0,0,0-3.92-1.24H32.24V1.7h8.84a6.69,6.69,0,0,1,4.66,1.46c1.15.94,4.09,1.06,6.16.64,1.21-.25,1.65-.58,1.72-.72C54,2.4,54.82,2,56.21,1.84A10.82,10.82,0,0,1,58,1.8l8.62.12,0,.91L58,2.71c-1.25-.09-3.15.08-3.47.74S53,4.5,52.1,4.69A13.63,13.63,0,0,1,49.48,4.94Z"/><path class="cls-1" d="M59.87,42.68c-1-1.13-3-1.93-6-2.31a28.27,28.27,0,0,0-4.35-.23l0-.91c.34,0,8.46-.26,11.13,2.89Z"/><path class="cls-1" d="M42,40.67l-.45-.81c1.4-.66,5.67-.47,6.15-.44l0,.91C46.39,40.26,43,40.2,42,40.67Z"/><path class="cls-1" d="M56.63,9.72a.5.5,0,0,1-.45-.28c-.06-.12-1.57-3.08-7.79-3.24h-.28A10,10,0,0,0,41,9.12a.51.51,0,0,1-.68.07.44.44,0,0,1-.08-.64,10.81,10.81,0,0,1,8.2-3.26c6.89.18,8.59,3.64,8.66,3.79a.44.44,0,0,1-.25.6A.65.65,0,0,1,56.63,9.72Z"/><path class="cls-1" d="M41.88,80.24a.47.47,0,0,1-.49-.45.48.48,0,0,1,.49-.46c.13,0,13.19-.07,17.2-.07a.46.46,0,1,1,0,.91c-4,0-17.07.07-17.2.07Z"/></svg>