<svg id="Capa_1" data-name="Capa 1" xmlns="http://www.w3.org/2000/svg" viewBox="0 0 100 100"><defs><style>.cls-1,.cls-3{fill:none;}.cls-2{fill:#fff;}.cls-3{stroke:#fff;stroke-miterlimit:10;stroke-width:3px;}</style></defs><title>roseta</title><path class="cls-1" d="M49.45,61.81A12.59,12.59,0,1,1,62,49.23,12.58,12.58,0,0,1,49.45,61.81Z"/><path class="cls-2" d="M69.16,97.25H30.84a1,1,0,0,1-.7-.29L3,69.86a1,1,0,0,1-.29-.7V30.84a1,1,0,0,1,.29-.7L30.14,3a1,1,0,0,1,.7-.29H69.16a1,1,0,0,1,.7.29L97,30.14a1,1,0,0,1,.29.7V69.16a1,1,0,0,1-.29.7L69.86,97A1,1,0,0,1,69.16,97.25ZM32,93.54H68L93.54,68V32L68,6.46H32L6.46,32V68ZM49.45,62.8A13.58,13.58,0,1,1,63,49.23,13.59,13.59,0,0,1,49.45,62.8Zm0-24.58a11,11,0,1,0,11,11A11,11,0,0,0,49.45,38.22Z"/><path class="cls-3" d="M30.93,82.29a1.6,1.6,0,0,1-2.27,0l-12-12.17v0a1.37,1.37,0,0,1-.18-.16,1.6,1.6,0,0,1,0-2.27,1.46,1.46,0,0,1,.41-.29h0l14.31-7.5.18-.1h0a1.61,1.61,0,0,1,1.77.35l5.53,5.61.16.16h0a1.6,1.6,0,0,1,.21,1.77v0L31.22,81.91h0A1.49,1.49,0,0,1,30.93,82.29Z"/><path class="cls-3" d="M56.14,84.85c0,.87-.5,1.59-1.11,1.59H44.41v0l-.17,0c-.61,0-1.1-.72-1.1-1.59a2.54,2.54,0,0,1,0-.49h0l3.26-15.29,0-.2h0a1.19,1.19,0,0,1,1-1h4.55a1.28,1.28,0,0,1,1,1.09v0l3.06,15.42h0A2.34,2.34,0,0,1,56.14,84.85Z"/><path class="cls-3" d="M13,42.83c-.88,0-1.59.5-1.59,1.11V54.56h0a1,1,0,0,0,0,.17c0,.61.71,1.1,1.59,1.1a1.94,1.94,0,0,0,.49-.05h0l15.3-3.25.2,0h0c.59-.16,1-.56,1-1V46.92h0a1.27,1.27,0,0,0-1.09-1h0L13.45,42.88h0A2.42,2.42,0,0,0,13,42.83Z"/><path class="cls-3" d="M31.37,16.35a1.61,1.61,0,0,0-2.27,0l-12,12.17v0l-.18.15a1.6,1.6,0,0,0,0,2.27,1.46,1.46,0,0,0,.41.29h0l14.31,7.49.18.1h0a1.61,1.61,0,0,0,1.77-.35l5.53-5.61.16-.15h0A1.6,1.6,0,0,0,39.49,31v0L31.65,16.73h0A1.49,1.49,0,0,0,31.37,16.35Z"/><path class="cls-3" d="M56.14,13.61c0-.88-.5-1.59-1.11-1.59H44.41v0a.47.47,0,0,0-.17,0c-.61,0-1.1.71-1.1,1.59a2.63,2.63,0,0,0,0,.49h0l3.26,15.3,0,.2h0c.16.59.56,1,1,1h4.55a1.29,1.29,0,0,0,1-1.09v0l3.06-15.41h0A2.24,2.24,0,0,0,56.14,13.61Z"/><path class="cls-3" d="M68.26,82.29a1.6,1.6,0,0,0,2.27,0l12-12.17v0l.18-.16a1.61,1.61,0,0,0,0-2.27,1.46,1.46,0,0,0-.41-.29h0L68,59.87l-.18-.1h0a1.61,1.61,0,0,0-1.77.35L60.5,65.73l-.15.16h0a1.6,1.6,0,0,0-.21,1.77v0L68,81.91h0A1.29,1.29,0,0,0,68.26,82.29Z"/><path class="cls-3" d="M85.92,42.83c.87,0,1.59.5,1.59,1.11V54.56h0a1,1,0,0,1,0,.17c0,.61-.72,1.1-1.59,1.1a1.94,1.94,0,0,1-.49-.05h0l-15.3-3.25-.2,0h0c-.59-.16-1-.56-1-1V46.92h0A1.26,1.26,0,0,1,70,46h0l15.42-3.06h0A2.42,2.42,0,0,1,85.92,42.83Z"/><path class="cls-3" d="M67.53,16.35a1.61,1.61,0,0,1,2.27,0l12,12.17v0l.18.15A1.6,1.6,0,0,1,82,31a1.46,1.46,0,0,1-.41.29h0L67.27,38.77l-.18.1h0a1.61,1.61,0,0,1-1.77-.35l-5.54-5.61-.15-.15h0A1.6,1.6,0,0,1,59.41,31v0l7.82-14.23h0A1.29,1.29,0,0,1,67.53,16.35Z"/></svg>