<svg id="Capa_1" data-name="Capa 1" xmlns="http://www.w3.org/2000/svg" viewBox="0 0 100 100"><defs><style>.cls-1{fill:#fff;}</style></defs><title>scaffolding</title><path class="cls-1" d="M92.73,35.81v-18h1.63a4.9,4.9,0,1,0,0-9.8H92.73V6.4a4.9,4.9,0,0,0-9.8,0V8H17.58V6.4a4.9,4.9,0,1,0-9.8,0V8H6.15a4.9,4.9,0,0,0,0,9.8H7.78V73.38H6.15a4.91,4.91,0,0,0,0,9.81h.62l-2,4A6.55,6.55,0,1,0,13.56,90l3.4-6.8H83.55L87,90a6.31,6.31,0,0,0-.76,3,6.53,6.53,0,1,0,9.57-5.75l-2-4h.62a4.91,4.91,0,1,0,0-9.81H92.73ZM46.46,58.68,17.58,72.43V44.93ZM23.18,44H77.33L50.26,56.87ZM50.26,60.49,77.33,73.38H23.18Zm3.8-1.81L82.93,44.93v27.5Zm-43-18V37.44H89.46v3.27ZM82.93,17.84V34.18H17.58V17.84Zm6.53,16.34H86.2V17.84h3.26ZM86.2,6.4a1.63,1.63,0,1,1,3.26,0V8H86.2Zm-75.15,0a1.64,1.64,0,0,1,3.27,0V8H11.05ZM4.51,12.94a1.64,1.64,0,0,1,1.64-1.63H94.36a1.63,1.63,0,1,1,0,3.26H6.15a1.64,1.64,0,0,1-1.64-1.63Zm9.81,4.9V34.18H11.05V17.84ZM11.05,44h3.27v29.4H11.05ZM7.78,96.26A3.27,3.27,0,0,1,6.47,90l.06,0a3.27,3.27,0,1,1,1.25,6.29Zm3.4-8.83a6.56,6.56,0,0,0-2.44-.88l1.68-3.36h2.89Zm81.55,8.83A3.27,3.27,0,1,1,94,90L94,90a3.27,3.27,0,0,1-1.31,6.26Zm-1-9.71a6.53,6.53,0,0,0-2.44.89l-2.12-4.25h2.88ZM96,78.29a1.63,1.63,0,0,1-1.64,1.63H6.15a1.64,1.64,0,1,1,0-3.27H94.36A1.63,1.63,0,0,1,96,78.29Zm-9.8-4.91V44h3.26v29.4Z"/></svg>