<svg id="Capa_1" data-name="Capa 1" xmlns="http://www.w3.org/2000/svg" viewBox="0 0 96.4 71.54"><defs><style>.cls-1{fill:#fff;}</style></defs><title>truck</title><path class="cls-1" d="M83.27,70.48A3.77,3.77,0,1,0,87,74.24a3.76,3.76,0,0,0-3.77-3.76Zm0,0" transform="translate(-1.94 -13.99)"/><path class="cls-1" d="M81.39,55.41a1.89,1.89,0,1,0,1.88,1.89,1.89,1.89,0,0,0-1.88-1.89Zm0,0" transform="translate(-1.94 -13.99)"/><path class="cls-1" d="M25.66,70.48a3.77,3.77,0,1,0,3.77,3.76,3.76,3.76,0,0,0-3.77-3.76Zm0,0" transform="translate(-1.94 -13.99)"/><path class="cls-1" d="M90.42,48,87.18,35a5.65,5.65,0,0,0-3.91-9.73H68.21V19.64A5.66,5.66,0,0,0,62.56,14h-55a5.66,5.66,0,0,0-5.65,5.65v49a5.65,5.65,0,0,0,5.65,5.65h6.77a11.3,11.3,0,1,0,22.6,0H72a11.3,11.3,0,1,0,22.59,0c0-.11,0-.21,0-.32a5.65,5.65,0,0,0,3.78-5.33V57.3A9.44,9.44,0,0,0,90.42,48ZM83.69,36.59l2.82,11.29H70.87l4.32-4.31a1.88,1.88,0,0,0-2.66-2.67l-4.32,4.32V36.59Zm1.47-5.65a1.89,1.89,0,0,1-1.89,1.88H68.21V29.05H83.27a1.89,1.89,0,0,1,1.89,1.89ZM25.66,81.77a7.53,7.53,0,1,1,7.53-7.53,7.54,7.54,0,0,1-7.53,7.53ZM36.31,70.48a11.29,11.29,0,0,0-21.3,0H7.59A1.89,1.89,0,0,1,5.7,68.59V19.64a1.89,1.89,0,0,1,1.89-1.88h55a1.89,1.89,0,0,1,1.89,1.88V70.48Zm47,11.29a7.53,7.53,0,1,1,7.54-7.53,7.54,7.54,0,0,1-7.54,7.53ZM93.79,70.12a11.29,11.29,0,0,0-21.17.36H68.21V51.65H88.92a5.66,5.66,0,0,1,5.33,3.76H88.92a1.89,1.89,0,0,0,0,3.77h5.65v9.41a1.9,1.9,0,0,1-.78,1.53Zm0,0" transform="translate(-1.94 -13.99)"/><path class="cls-1" d="M35.08,25.29A16.95,16.95,0,1,0,52,42.23,17,17,0,0,0,35.08,25.29Zm0,30.12A13.18,13.18,0,1,1,48.25,42.23,13.19,13.19,0,0,1,35.08,55.41Zm0,0" transform="translate(-1.94 -13.99)"/><path class="cls-1" d="M42.61,40.35H37V34.7a1.89,1.89,0,0,0-3.77,0v7.53a1.89,1.89,0,0,0,1.89,1.89h7.53a1.89,1.89,0,0,0,0-3.77Zm0,0" transform="translate(-1.94 -13.99)"/></svg>